# xmcd
#
# Track frame offsets:
#	150
#	14164
#	31877
#	49965
#	64372
#	81201
#	95148
#	113059
#	128196
#	145446
#	160640
#
# Disc length: 2332 seconds
#
# Revision: 1
# Processed by: cddbd v1.5.2PL0 Copyright (c) Steve Scherf et al.
# Submitted via: audiograbber 1.83.01
#
DISCID=9d091a0b
DTITLE=Debbie McLean - Take This Heart
DYEAR=2012
DGENRE=Country
TTITLE0=Take This Heart
TTITLE1=18 Wheels and a Dozen Roses
TTITLE2=Lonely After You
TTITLE3=Say It Again
TTITLE4=A Goodhearted Woman
TTITLE5=Apartment #9
TTITLE6=Sentimental Ol' You
TTITLE7=River Road
TTITLE8=Grandpa (Tell Me 'Bout the Good Old Days)
TTITLE9=What's Your Mama's Name Child
TTITLE10=Mama's Never Seen Those Eyes
EXTD=
EXTT0=
EXTT1=
EXTT2=
EXTT3=
EXTT4=
EXTT5=
EXTT6=
EXTT7=
EXTT8=
EXTT9=
EXTT10=
PLAYORDER=
